<svg xmlns="http://www.w3.org/2000/svg" width="16" height="16" viewBox="0 0 16 16"><g transform="translate(-1625 -1884)"><rect width="16" height="16" transform="translate(1625 1884)" fill="#faa" opacity="0"/><path d="M6.72,11.25H4.148c0-.061.033-6.882,0-7.59H6.72V4.734a2.86,2.86,0,0,1,.775-.82,2.693,2.693,0,0,1,1.543-.433,2.812,2.812,0,0,1,2.115.834A3.647,3.647,0,0,1,12,6.9v4.352H9.428V7.188c0-.783-.226-1.716-1.3-1.716a1.337,1.337,0,0,0-.856.291,1.572,1.572,0,0,0-.463.631,1.642,1.642,0,0,0-.085.615V11.25Zm-4,0H.152V3.659H2.724v7.59ZM1.438,2.623H1.422A1.325,1.325,0,0,1,0,1.311,1.328,1.328,0,0,1,1.455,0,1.325,1.325,0,0,1,2.894,1.311a1.261,1.261,0,0,1-.392.93A1.517,1.517,0,0,1,1.438,2.623Z" transform="translate(1627 1886.5)" fill="#272a37"/></g></svg>