<svg xmlns="http://www.w3.org/2000/svg" class="agriculture" width="16" height="16" viewBox="0 0 16 16"><g id="Group_12516" data-name="Group 12516" transform="translate(-84 -509)"><rect id="Rectangle_3857" data-name="Rectangle 3857" width="16" height="16" transform="translate(84 509)" fill="#e4e7ed" opacity="0"></rect><g id="agriculture-24px" transform="translate(84 509)"><g id="Group_12513" data-name="Group 12513"><rect id="Rectangle_5879" data-name="Rectangle 5879" width="16" height="16" fill="none"></rect><rect id="Rectangle_5880" data-name="Rectangle 5880" width="16" height="16" fill="none"></rect></g><g id="Group_12515" data-name="Group 12515" transform="translate(0.667 1.993)"><g id="Group_12514" data-name="Group 12514"><path id="Path_33359" data-name="Path 33359" d="M16.34,8.977a2.98,2.98,0,0,1,1.667.507V6.31a1.337,1.337,0,0,0-1.333-1.333H12.48l-.707-.707.707-.707a.335.335,0,0,0-.473-.473L10.12,4.977a.33.33,0,0,0,0,.473h0a.33.33,0,0,0,.473,0l.707-.707.707.707V6.977A1.337,1.337,0,0,1,10.673,8.31h-.36a3.986,3.986,0,0,1,1.027,2.667,4.425,4.425,0,0,1-.06.667h2.093A3,3,0,0,1,16.34,8.977Z" transform="translate(-4.007 -2.99)" fill="#8996ae"></path><path id="Path_33360" data-name="Path 33360" d="M18.333,12.97A2.333,2.333,0,1,0,20.667,15.3,2.336,2.336,0,0,0,18.333,12.97Zm0,3.333a1,1,0,1,1,1-1A1,1,0,0,1,18.333,16.3Z" transform="translate(-6 -6.317)" fill="#8996ae"></path><path id="Path_33361" data-name="Path 33361" d="M3.667,8.3H7A1.337,1.337,0,0,0,5.667,6.97h-2a.667.667,0,0,0,0,1.333Z" transform="translate(-1.667 -4.317)" fill="#8996ae"></path><path id="Path_33362" data-name="Path 33362" d="M6.887,12.517l-.12-.313.62-.233a3.28,3.28,0,0,0-1.54-1.62l-.267.593-.307-.14.267-.6A3.409,3.409,0,0,0,4.333,9.97a3.4,3.4,0,0,0-1.013.173l.227.607-.313.12L3,10.257A3.28,3.28,0,0,0,1.38,11.8l.593.267-.14.307-.6-.267A3.233,3.233,0,0,0,1,13.3a3.4,3.4,0,0,0,.173,1.013l.607-.227.12.313-.62.233a3.28,3.28,0,0,0,1.54,1.62l.267-.593.307.14-.267.6a3.358,3.358,0,0,0,1.213.233,3.4,3.4,0,0,0,1.013-.173l-.233-.607.313-.12.233.62a3.28,3.28,0,0,0,1.62-1.54l-.593-.267.14-.307.6.267A3.358,3.358,0,0,0,7.667,13.3a3.4,3.4,0,0,0-.173-1.013ZM5.1,15.157a2,2,0,1,1,1.08-2.613A2,2,0,0,1,5.1,15.157Z" transform="translate(-1 -5.317)" fill="#8996ae"></path></g></g></g></g></svg>