<svg xmlns="http://www.w3.org/2000/svg" width="16" height="16" viewBox="0 0 16 16"><g id="Group_12504" data-name="Group 12504" transform="translate(-84 -637)"><rect id="Rectangle_3857" data-name="Rectangle 3857" width="16" height="16" transform="translate(84 637)" fill="#e4e7ed" opacity="0"></rect><g id="color_lens-24px" transform="translate(84 637)"><path id="Path_33345" data-name="Path 33345" d="M0,0H16V16H0Z" fill="none"></path><path id="Path_33346" data-name="Path 33346" d="M9,3A6,6,0,0,0,9,15a1,1,0,0,0,.74-1.673,1,1,0,0,1,.747-1.66h1.18A3.335,3.335,0,0,0,15,8.333C15,5.387,12.313,3,9,3ZM5.333,9a1,1,0,1,1,1-1A1,1,0,0,1,5.333,9Zm2-2.667a1,1,0,1,1,1-1A1,1,0,0,1,7.333,6.333Zm3.333,0a1,1,0,1,1,1-1A1,1,0,0,1,10.667,6.333Zm2,2.667a1,1,0,1,1,1-1A1,1,0,0,1,12.667,9Z" transform="translate(-1 -1)" fill="#8996ae"></path></g></g></svg>