<svg xmlns="http://www.w3.org/2000/svg" width="16" height="16" viewBox="0 0 16 16"><g id="Group_12531" data-name="Group 12531" transform="translate(-84 -445)"><rect id="Rectangle_3857" data-name="Rectangle 3857" width="16" height="16" transform="translate(84 445)" fill="#e4e7ed" opacity="0"></rect><g id="checkroom-24px" transform="translate(84 445)"><rect id="Rectangle_5885" data-name="Rectangle 5885" width="16" height="16" fill="none"></rect><path id="Path_33380" data-name="Path 33380" d="M13.761,11.1,8.6,7.874V7.419a1.752,1.752,0,0,0,1.458-2.025,1.94,1.94,0,0,0-1.566-1.35,2.242,2.242,0,0,0-2.412.99c-.18.335.108.715.546.715h0a.6.6,0,0,0,.54-.285A.916.916,0,0,1,8,5a.834.834,0,0,1,.9.75.838.838,0,0,1-.918.75.541.541,0,0,0-.582.5v.88L2.239,11.1c-.462.29-.216.9.36.9H13.4C13.977,12,14.223,11.39,13.761,11.1ZM4.4,11,8,8.749,11.6,11Z" fill="#8996ae"></path></g></g></svg>