<svg xmlns="http://www.w3.org/2000/svg" class="book" width="16" height="16" viewBox="0 0 16 16"><g id="Group_12507" data-name="Group 12507" transform="translate(-84 -605)"><rect id="Rectangle_3857" data-name="Rectangle 3857" width="16" height="16" transform="translate(84 605)" fill="#e4e7ed" opacity="0"></rect><g id="menu_book-24px" transform="translate(84 605)"><g id="Group_12505" data-name="Group 12505"><rect id="Rectangle_5875" data-name="Rectangle 5875" width="16" height="16" fill="none"></rect><rect id="Rectangle_5876" data-name="Rectangle 5876" width="16" height="16" fill="none"></rect></g><g id="Group_12506" data-name="Group 12506" transform="translate(0.667 3)"><path id="Path_33347" data-name="Path 33347" d="M12,4.5a6.2,6.2,0,0,0-3.667,1,6.2,6.2,0,0,0-3.667-1,7.213,7.213,0,0,0-2.853.527A1.358,1.358,0,0,0,1,6.26v7.52a1.33,1.33,0,0,0,1.653,1.293,8.234,8.234,0,0,1,2.013-.24,7.05,7.05,0,0,1,3.04.613,1.37,1.37,0,0,0,1.247,0,6.953,6.953,0,0,1,3.04-.613,8.234,8.234,0,0,1,2.013.24A1.324,1.324,0,0,0,15.66,13.78V6.26a1.358,1.358,0,0,0-.813-1.233A7.159,7.159,0,0,0,12,4.5Zm2.333,8.487a.673.673,0,0,1-.8.653A8.406,8.406,0,0,0,12,13.507a8.03,8.03,0,0,0-3.667,1V6.833a8.03,8.03,0,0,1,3.667-1,8.458,8.458,0,0,1,1.8.187.676.676,0,0,1,.533.653Z" transform="translate(-1 -4.5)" fill="#8996ae"></path><path id="Path_33348" data-name="Path 33348" d="M13.731,10.343a.5.5,0,0,1-.153-.973,8.869,8.869,0,0,1,3.573-.3.5.5,0,1,1-.113.993,7.88,7.88,0,0,0-3.153.26A1.386,1.386,0,0,1,13.731,10.343Z" transform="translate(-5.078 -6.003)" fill="#8996ae"></path><path id="Path_33349" data-name="Path 33349" d="M13.731,13a.5.5,0,0,1-.153-.973,8.858,8.858,0,0,1,3.573-.3.5.5,0,0,1-.113.993,7.88,7.88,0,0,0-3.153.26A.646.646,0,0,1,13.731,13Z" transform="translate(-5.078 -6.89)" fill="#8996ae"></path><path id="Path_33350" data-name="Path 33350" d="M13.731,15.663a.5.5,0,0,1-.153-.973,8.858,8.858,0,0,1,3.573-.3.5.5,0,1,1-.113.993,7.88,7.88,0,0,0-3.153.26A.646.646,0,0,1,13.731,15.663Z" transform="translate(-5.078 -7.777)" fill="#8996ae"></path></g></g></g></svg>