<svg xmlns="http://www.w3.org/2000/svg" width="16" height="16" viewBox="0 0 16 16" class="svg-1069"><g id="Group_14558" data-name="Group 14558" transform="translate(-19197 -3364)"><g id="Group_14557" data-name="Group 14557" transform="translate(19194 3360)"><path id="Combined_Shape" data-name="Combined Shape" d="M4.667,14a.934.934,0,0,1-.933-.933.934.934,0,0,1-.933-.933V1.867H.933A.933.933,0,0,1,.933,0h2.8a.933.933,0,0,1,.933.933v11.2h8.4a.933.933,0,1,1,0,1.867Z" transform="translate(4 4)" fill="#8996ae" opacity="0.44"></path><rect id="Rectangle_63_Copy" data-name="Rectangle 63 Copy" width="8" height="8" rx="1.5" transform="translate(10 6.667)" fill="#8996ae"></rect><circle id="Oval" cx="3" cy="3" r="3" transform="translate(5 14)" fill="#8996ae"></circle></g><rect id="Rectangle_6012" data-name="Rectangle 6012" width="16" height="16" transform="translate(19197 3364)" fill="none"></rect></g></svg>