<svg xmlns="http://www.w3.org/2000/svg" width="16" height="16" viewBox="0 0 16 16"><g id="Group_12503" data-name="Group 12503" transform="translate(-84 -413)"><rect id="Rectangle_3857" data-name="Rectangle 3857" width="16" height="16" transform="translate(84 413)" fill="#e4e7ed" opacity="0"></rect><g id="child_friendly-24px" transform="translate(84 413)"><path id="Path_33343" data-name="Path 33343" d="M0,0H16V16H0Z" fill="none"></path><path id="Path_33344" data-name="Path 33344" d="M9.333,2.743V7.356h5.333a5.333,5.333,0,0,0-4.573-5.28.67.67,0,0,0-.76.667Zm4.213,8.54a5.3,5.3,0,0,0,1.12-3.26H4.96L4.507,7.07a.662.662,0,0,0-.6-.38H2.667a.667.667,0,0,0,0,1.333H3.48s1.26,2.713,1.413,2.947A2.331,2.331,0,1,0,8.3,13.356H9.687a2.333,2.333,0,1,0,3.86-2.073ZM6,14.023a1,1,0,1,1,1-1A1,1,0,0,1,6,14.023Zm6,0a1,1,0,1,1,1-1A1,1,0,0,1,12,14.023Z" transform="translate(-0.667 -0.69)" fill="#8996ae"></path></g></g></svg>