<svg width="16" height="16" viewBox="0 0 326 373" fill="none" xmlns="http://www.w3.org/2000/svg"><path d="M326 280.114C326 281.328 325.879 282.543 325.637 283.757V284.121L325.273 284.485C325.031 285.7 324.667 287.035 324.183 288.492V288.856C323.698 289.828 323.093 290.921 322.366 292.135L322.002 292.863C321.275 293.592 320.548 294.442 319.822 295.413L318.731 296.506L317.278 297.963C316.308 298.449 315.46 298.934 314.734 299.42L314.552 299.602L314.37 299.784H314.007C311.342 301.241 308.555 302.213 305.648 302.698C303.952 302.941 302.983 303.062 302.74 303.062H209.701V349.688C209.701 356.001 207.399 361.465 202.796 366.079C198.192 370.693 192.741 373 186.441 373H139.559C133.259 373 127.808 370.693 123.204 366.079C118.601 361.465 116.299 356.001 116.299 349.688V303.062H23.2598C23.0175 303.062 22.0483 302.941 20.3523 302.698C17.4448 302.213 14.6585 301.241 11.9933 299.784H11.6299L11.4482 299.602L11.2664 299.42C10.5396 299.177 9.69156 298.691 8.72241 297.963C8.23783 297.234 7.75325 296.749 7.26867 296.506L6.17837 295.413C5.4515 294.442 4.72464 293.592 3.99777 292.863L3.81605 292.499L3.63434 292.135C2.90747 290.921 2.30175 289.828 1.81717 288.856V288.492C1.33259 287.035 0.969156 285.7 0.726867 284.485C0.484578 284.485 0.363434 284.364 0.363434 284.121V283.757C0.121145 282.543 0 281.328 0 280.114V278.657C0.242289 277.686 0.363434 276.836 0.363434 276.107C0.605723 275.136 0.848012 274.043 1.0903 272.829V272.465C2.05946 269.551 3.63434 266.88 5.81494 264.451L43.612 207.263C65.9026 229.118 96.9762 246.603 136.833 259.716C176.689 272.829 220.362 279.386 267.851 279.386C286.749 279.386 306.011 278.172 325.637 275.743V276.107C325.637 276.836 325.758 277.686 326 278.657V280.114ZM58.1494 256.073C54.9996 256.073 52.2739 257.227 49.9721 259.534C47.6704 261.841 46.5195 264.633 46.5195 267.912C46.5195 271.19 47.6704 273.922 49.9721 276.107C52.2739 278.293 54.9996 279.386 58.1494 279.386C61.2991 279.386 64.0249 278.293 66.3266 276.107C68.6284 273.922 69.7793 271.19 69.7793 267.912C69.7793 264.633 68.6284 261.841 66.3266 259.534C64.0249 257.227 61.2991 256.073 58.1494 256.073ZM104.851 256.073C101.58 256.073 98.7934 257.227 96.4916 259.534C94.1899 261.841 93.039 264.633 93.039 267.912C93.039 271.19 94.1899 273.922 96.4916 276.107C98.7934 278.293 101.58 279.386 104.851 279.386C108.122 279.386 110.847 278.293 113.028 276.107C115.208 273.922 116.299 271.19 116.299 267.912C116.299 264.633 115.208 261.841 113.028 259.534C110.847 257.227 108.122 256.073 104.851 256.073ZM57.786 186.136H43.612C40.7046 185.65 37.9182 184.679 35.2531 183.222C35.0108 183.222 34.8896 183.161 34.8896 183.04C34.8896 182.918 34.8291 182.857 34.7079 182.857H34.5262C33.7993 182.372 33.0725 181.765 32.3456 181.036C31.3764 180.55 30.7707 180.186 30.5284 179.943C30.2861 179.701 29.9227 179.215 29.4381 178.486C28.7113 177.758 28.1055 177.029 27.621 176.301L27.0758 175.754L26.8941 175.572C26.1672 174.358 25.5615 173.265 25.0769 172.294V171.565C24.5923 170.351 24.2289 169.137 23.9866 167.923L23.8049 167.559L23.6232 167.194C23.3809 165.98 23.2598 164.766 23.2598 163.552V161.73C23.502 160.759 23.6232 160.031 23.6232 159.545C23.8655 158.574 24.1078 157.481 24.3501 156.267V155.902C25.8038 151.288 28.469 147.524 32.3456 144.61L58.8763 112.556C74.625 139.268 102.912 161.488 143.738 179.215C184.564 196.942 231.144 206.898 283.478 209.084L314.007 254.98C301.892 255.709 290.383 256.073 279.48 256.073C232.961 256.073 190.076 249.759 150.825 237.132C111.574 224.504 80.5611 207.506 57.786 186.136ZM81.5909 162.823C78.32 162.823 75.5336 163.977 73.2319 166.284C70.9301 168.591 69.7793 171.323 69.7793 174.479C69.7793 177.636 70.9301 180.368 73.2319 182.675C75.5336 184.982 78.32 186.136 81.5909 186.136C84.8618 186.136 87.5875 184.982 89.7681 182.675C91.9487 180.368 93.039 177.636 93.039 174.479C93.039 171.323 91.9487 168.591 89.7681 166.284C87.5875 163.977 84.8618 162.823 81.5909 162.823ZM128.11 186.136C124.839 186.136 122.053 187.289 119.751 189.596C117.45 191.903 116.299 194.635 116.299 197.792C116.299 200.949 117.45 203.681 119.751 205.988C122.053 208.295 124.839 209.448 128.11 209.448C131.381 209.448 134.107 208.295 136.288 205.988C138.468 203.681 139.559 200.949 139.559 197.792C139.559 194.635 138.468 191.903 136.288 189.596C134.107 187.289 131.381 186.136 128.11 186.136ZM197.89 209.448C194.619 209.448 191.893 210.602 189.712 212.909C187.532 215.216 186.441 217.948 186.441 221.104C186.441 224.261 187.532 226.993 189.712 229.3C191.893 231.607 194.619 232.761 197.89 232.761C201.161 232.761 203.947 231.607 206.249 229.3C208.55 226.993 209.701 224.261 209.701 221.104C209.701 217.948 208.55 215.216 206.249 212.909C203.947 210.602 201.161 209.448 197.89 209.448ZM302.377 167.194L302.013 167.923C301.771 169.137 301.408 170.351 300.923 171.565V172.294C300.438 173.265 299.833 174.358 299.106 175.572L298.924 175.754L298.742 176.301L296.562 178.486C296.077 179.215 295.714 179.701 295.472 179.943C295.229 180.186 294.624 180.55 293.654 181.036C292.928 181.765 292.201 182.372 291.474 182.857H291.292L291.11 183.222H290.747C289.778 183.707 287.839 184.314 284.932 185.043C236.474 182.129 193.347 172.415 155.55 155.902C117.753 139.389 90.6161 118.869 74.1405 94.3428L115.208 44.4395C130.23 62.8952 151.673 78.9225 179.536 92.5215C207.399 106.12 239.139 115.834 274.756 121.662L293.654 144.61C297.531 147.524 300.196 151.288 301.65 155.902V156.267C301.892 157.481 302.135 158.574 302.377 159.545C302.377 160.031 302.498 160.759 302.74 161.73V163.552C302.74 164.766 302.619 165.98 302.377 167.194ZM151.37 92.8857C148.099 92.8857 145.313 93.9785 143.011 96.1641C140.709 98.3496 139.559 101.082 139.559 104.36C139.559 107.638 140.709 110.431 143.011 112.738C145.313 115.045 148.099 116.198 151.37 116.198C154.641 116.198 157.427 115.045 159.729 112.738C162.031 110.431 163.182 107.638 163.182 104.36C163.182 101.082 162.031 98.3496 159.729 96.1641C157.427 93.9785 154.641 92.8857 151.37 92.8857ZM197.89 116.198C194.619 116.198 191.893 117.352 189.712 119.659C187.532 121.966 186.441 124.698 186.441 127.854C186.441 131.011 187.532 133.743 189.712 136.05C191.893 138.357 194.619 139.511 197.89 139.511C201.161 139.511 203.947 138.357 206.249 136.05C208.55 133.743 209.701 131.011 209.701 127.854C209.701 124.698 208.55 121.966 206.249 119.659C203.947 117.352 201.161 116.198 197.89 116.198ZM244.591 139.511C241.441 139.511 238.715 140.664 236.414 142.971C234.112 145.278 232.961 148.01 232.961 151.167C232.961 154.324 234.112 157.056 236.414 159.363C238.715 161.67 241.441 162.823 244.591 162.823C247.741 162.823 250.466 161.67 252.768 159.363C255.07 157.056 256.221 154.324 256.221 151.167C256.221 148.01 255.07 145.278 252.768 142.971C250.466 140.664 247.741 139.511 244.591 139.511ZM142.829 11.292C142.829 11.0492 142.89 10.867 143.011 10.7456C143.132 10.6242 143.314 10.5635 143.556 10.5635C144.768 8.37793 146.464 6.43522 148.644 4.73535C148.887 4.49251 149.25 4.24967 149.735 4.00684C149.735 3.764 149.977 3.52116 150.462 3.27832C150.946 3.03548 151.31 2.79264 151.552 2.5498C151.794 2.5498 152.218 2.4891 152.824 2.36768C153.43 2.24626 153.854 2.06413 154.096 1.82129C155.792 1.09277 157.367 0.607096 158.821 0.364258C159.79 0.121419 161.183 0 163 0C164.817 0 166.331 0.121419 167.543 0.364258C168.754 0.607096 170.208 1.09277 171.904 1.82129C172.146 2.06413 172.57 2.24626 173.176 2.36768C173.782 2.4891 174.266 2.61051 174.63 2.73193C174.993 2.85335 175.417 3.1569 175.902 3.64258C176.144 3.64258 176.265 3.764 176.265 4.00684L177.356 4.73535C179.536 6.43522 181.353 8.37793 182.807 10.5635L182.989 10.7456L183.171 11.292L248.589 89.9717C196.012 75.887 156.761 54.3958 130.836 25.498L142.829 11.292Z" fill="#8996ae"></path></svg>