<svg xmlns="http://www.w3.org/2000/svg" class="construction" width="16" height="16" viewBox="0 0 16 16"><g id="Group_12520" data-name="Group 12520" transform="translate(-84 -477)"><rect id="Rectangle_3857" data-name="Rectangle 3857" width="16" height="16" transform="translate(84 477)" fill="#e4e7ed" opacity="0"></rect><g id="construction-24px" transform="translate(84 477)"><g id="Group_12517" data-name="Group 12517"><rect id="Rectangle_5881" data-name="Rectangle 5881" width="16" height="16" fill="none"></rect><rect id="Rectangle_5882" data-name="Rectangle 5882" width="16" height="16" fill="none"></rect></g><g id="Group_12519" data-name="Group 12519" transform="translate(1.693 1.742)"><g id="Group_12518" data-name="Group 12518"><path id="Path_33363" data-name="Path 33363" d="M18.637,16.343,15.343,13.05,13.93,14.463l3.293,3.293a.994.994,0,0,0,1.413,0A1.006,1.006,0,0,0,18.637,16.343Z" transform="translate(-6.337 -6.092)" fill="#8996ae"></path><path id="Path_33364" data-name="Path 33364" d="M12.613,7.538A2.336,2.336,0,0,0,14.947,5.2a2.3,2.3,0,0,0-.273-1.067l-1.8,1.8-.993-.993,1.8-1.8a2.3,2.3,0,0,0-1.067-.273A2.336,2.336,0,0,0,10.28,5.2a2.273,2.273,0,0,0,.14.773L9.187,7.211,8,6.024H8a.664.664,0,0,0,0-.94l-.473-.473L8.94,3.2a2,2,0,0,0-2.827,0L4.233,5.084a.664.664,0,0,0,0,.94l.473.473H3.013a.448.448,0,0,0-.333.14.467.467,0,0,0,0,.667L4.373,9A.467.467,0,0,0,5.04,9a.475.475,0,0,0,.14-.333V6.971l.467.467a.664.664,0,0,0,.94,0L7.773,8.624,3.54,12.858a.994.994,0,0,0,0,1.413h0a.994.994,0,0,0,1.413,0L11.833,7.4A2.342,2.342,0,0,0,12.613,7.538Z" transform="translate(-2.54 -2.613)" fill="#8996ae"></path></g></g></g></g></svg>