<svg xmlns="http://www.w3.org/2000/svg" width="16" height="16" viewBox="0 0 16 16"><g id="Group_12529" data-name="Group 12529" transform="translate(-84 -285)"><rect id="Rectangle_3857" data-name="Rectangle 3857" width="16" height="16" transform="translate(84 285)" fill="#e4e7ed" opacity="0"></rect><g id="local_laundry_service-24px" transform="translate(84 285)"><path id="Path_33376" data-name="Path 33376" d="M0,0H16V16H0Z" fill="none"></path><path id="Path_33377" data-name="Path 33377" d="M7.7,11.633a.329.329,0,0,0,.013.487,2.668,2.668,0,0,0,3.74-3.74.324.324,0,0,0-.487-.013L7.7,11.633Zm5.633-9.627L5.333,2A1.329,1.329,0,0,0,4,3.333V14a1.329,1.329,0,0,0,1.333,1.333h8A1.329,1.329,0,0,0,14.667,14V3.333A1.323,1.323,0,0,0,13.333,2.007ZM8,3.333A.667.667,0,1,1,7.333,4,.669.669,0,0,1,8,3.333Zm-2,0A.667.667,0,1,1,5.333,4,.669.669,0,0,1,6,3.333ZM9.333,14a4,4,0,1,1,4-4A4,4,0,0,1,9.333,14Z" transform="translate(-1.333 -0.667)" fill="#8996ae"></path></g></g></svg>