<svg xmlns="http://www.w3.org/2000/svg" width="16" height="16" viewBox="0 0 16 16"><g id="Group_12524" data-name="Group 12524" transform="translate(-84 -253)"><rect id="Rectangle_3857" data-name="Rectangle 3857" width="16" height="16" transform="translate(84 253)" fill="#e4e7ed" opacity="0"></rect><g id="home-24px" transform="translate(84 253)"><path id="Path_33371" data-name="Path 33371" d="M0,0H16V16H0Z" fill="none"></path><path id="Path_33372" data-name="Path 33372" d="M7.6,13.782V10.448h2.667v3.333a.669.669,0,0,0,.667.667h2a.669.669,0,0,0,.667-.667V9.115h1.133a.331.331,0,0,0,.22-.58L9.381,3.515a.672.672,0,0,0-.893,0L2.914,8.535a.332.332,0,0,0,.22.58H4.267v4.667a.669.669,0,0,0,.667.667h2A.669.669,0,0,0,7.6,13.782Z" transform="translate(-0.934 -1.115)" fill="#8996ae"></path></g></g></svg>