<svg xmlns="http://www.w3.org/2000/svg" width="16" height="16" viewBox="0 0 16 16"><g id="Group_12537" data-name="Group 12537" transform="translate(-84 -189)"><g id="Group_12536" data-name="Group 12536"><rect id="Rectangle_3857" data-name="Rectangle 3857" width="16" height="16" transform="translate(84 189)" fill="#e4e7ed" opacity="0"></rect><g id="emoji_people-24px" transform="translate(84 189)"><g id="Group_12533" data-name="Group 12533"><rect id="Rectangle_5886" data-name="Rectangle 5886" width="16" height="16" fill="none"></rect><rect id="Rectangle_5887" data-name="Rectangle 5887" width="16" height="16" fill="none"></rect></g><g id="Group_12535" data-name="Group 12535" transform="translate(2.719 1.333)"><g id="Group_12534" data-name="Group 12534"><circle id="Ellipse_802" data-name="Ellipse 802" cx="1.333" cy="1.333" r="1.333" transform="translate(3.947)" fill="#8996ae"></circle><path id="Path_33384" data-name="Path 33384" d="M11.953,6.073a2.068,2.068,0,0,0-1.573-.74H8.686a3.349,3.349,0,0,1-3.28-2.767A.665.665,0,0,0,4.753,2h0a.67.67,0,0,0-.667.76A4.691,4.691,0,0,0,7.36,6.473v8.193a.669.669,0,0,0,.667.667h0a.669.669,0,0,0,.667-.667V11.333h1.333v3.333a.669.669,0,0,0,.667.667h0a.669.669,0,0,0,.667-.667v-7.3l2.16,2.16a.664.664,0,0,0,.94,0h0a.664.664,0,0,0,0-.94Z" transform="translate(-4.079 -2)" fill="#8996ae"></path></g></g></g></g></g></svg>