<svg xmlns="http://www.w3.org/2000/svg" width="16" height="16" viewBox="0 0 16 16"><g id="Group_12525" data-name="Group 12525" transform="translate(-84 -349)"><rect id="Rectangle_3857" data-name="Rectangle 3857" width="16" height="16" transform="translate(84 349)" fill="#e4e7ed" opacity="0"></rect><g id="gps_fixed-24px" transform="translate(84 349)"><path id="Path_33373" data-name="Path 33373" d="M0,0H16V16H0Z" fill="none"></path><path id="Path_33374" data-name="Path 33374" d="M8,5.455A2.545,2.545,0,1,0,10.545,8,2.545,2.545,0,0,0,8,5.455Zm5.689,1.909A5.724,5.724,0,0,0,8.636,2.311V1.636a.636.636,0,1,0-1.273,0v.675A5.724,5.724,0,0,0,2.311,7.364H1.636a.636.636,0,1,0,0,1.273h.675a5.724,5.724,0,0,0,5.053,5.053v.675a.636.636,0,0,0,1.273,0v-.675a5.724,5.724,0,0,0,5.053-5.053h.675a.636.636,0,0,0,0-1.273h-.675ZM8,12.455A4.455,4.455,0,1,1,12.455,8,4.451,4.451,0,0,1,8,12.455Z" fill="#8996ae"></path></g></g></svg>