<svg xmlns="http://www.w3.org/2000/svg" width="16" height="16" viewBox="0 0 16 16"><g id="Group_12512" data-name="Group 12512" transform="translate(-84 -541)"><rect id="Rectangle_3857" data-name="Rectangle 3857" width="16" height="16" transform="translate(84 541)" fill="#e4e7ed" opacity="0"></rect><g id="pets-24px" transform="translate(84 541)"><path id="Path_33357" data-name="Path 33357" d="M0,0H16V16H0Z" fill="none"></path><circle id="Ellipse_797" data-name="Ellipse 797" cx="1.667" cy="1.667" r="1.667" transform="translate(1.333 4.667)" fill="#8996ae"></circle><circle id="Ellipse_798" data-name="Ellipse 798" cx="1.667" cy="1.667" r="1.667" transform="translate(4.333 2)" fill="#8996ae"></circle><circle id="Ellipse_799" data-name="Ellipse 799" cx="1.667" cy="1.667" r="1.667" transform="translate(8.333 2)" fill="#8996ae"></circle><circle id="Ellipse_800" data-name="Ellipse 800" cx="1.667" cy="1.667" r="1.667" transform="translate(11.333 4.667)" fill="#8996ae"></circle><path id="Path_33358" data-name="Path 33358" d="M12.891,13.407c-.58-.68-1.067-1.26-1.653-1.94a2.828,2.828,0,0,0-1.167-.88,1.35,1.35,0,0,0-.22-.06,3.355,3.355,0,0,0-.52-.027,2.8,2.8,0,0,0-.527.033,1.35,1.35,0,0,0-.22.06,2.872,2.872,0,0,0-1.167.88c-.58.68-1.067,1.26-1.653,1.94-.873.873-1.947,1.84-1.747,3.193a2.093,2.093,0,0,0,1.553,1.547c.487.1,2.04-.293,3.693-.293h.12c1.653,0,3.207.387,3.693.293a2.1,2.1,0,0,0,1.553-1.547c.207-1.36-.867-2.327-1.74-3.2Z" transform="translate(-1.331 -3.5)" fill="#8996ae"></path></g></g></svg>