<svg id="Group_12865" class="rent-svg" data-name="Group 12865" xmlns="http://www.w3.org/2000/svg" width="16" height="16" viewBox="0 0 16 16"><rect id="Rectangle_3857" data-name="Rectangle 3857" width="16" height="16" fill="#e4e7ed" opacity="0"></rect><path id="Path_33382" data-name="Path 33382" d="M9.86,3.24,7.38,7.293a.665.665,0,0,0,.567,1.013H12.9a.665.665,0,0,0,.567-1.013L10.993,3.24A.662.662,0,0,0,9.86,3.24Z" transform="translate(-2.427 -0.973)" fill="#8996ae"></path><circle id="Ellipse_801" data-name="Ellipse 801" cx="3" cy="3" r="3" transform="translate(8.667 8.667)" fill="#8996ae"></circle><path id="Path_33383" data-name="Path 33383" d="M3.667,18.833h4a.669.669,0,0,0,.667-.667v-4a.669.669,0,0,0-.667-.667h-4A.669.669,0,0,0,3,14.167v4A.669.669,0,0,0,3.667,18.833Z" transform="translate(-1 -4.5)" fill="#8996ae"></path></svg>