<svg xmlns="http://www.w3.org/2000/svg" class="sport" width="16" height="16" viewBox="0 0 16 16"><g id="Group_12511" data-name="Group 12511" transform="translate(-84 -573)"><rect id="Rectangle_3857" data-name="Rectangle 3857" width="16" height="16" transform="translate(84 573)" fill="#e4e7ed" opacity="0"></rect><g id="sports_volleyball-24px" transform="translate(84 573)"><g id="Group_12508" data-name="Group 12508"><rect id="Rectangle_5877" data-name="Rectangle 5877" width="16" height="16" fill="none"></rect><rect id="Rectangle_5878" data-name="Rectangle 5878" width="16" height="16" fill="none"></rect></g><g id="Group_12510" data-name="Group 12510" transform="translate(1.333 1.367)"><g id="Group_12509" data-name="Group 12509"><path id="Path_33351" data-name="Path 33351" d="M4.667,4.01a6.644,6.644,0,0,0-2.073,8.067l2.073-1.2Z" transform="translate(-2 -2.703)" fill="#8996ae"></path><path id="Path_33352" data-name="Path 33352" d="M10,8.3V2.05a6.656,6.656,0,0,0-2,.527v6.88Z" transform="translate(-4 -2.05)" fill="#8996ae"></path><path id="Path_33353" data-name="Path 33353" d="M9.3,13.15,3.89,16.27a6.594,6.594,0,0,0,1.453,1.467L11.3,14.31Z" transform="translate(-2.63 -5.75)" fill="#8996ae"></path><path id="Path_33354" data-name="Path 33354" d="M13,7.96v2.307l5.407,3.12a6.651,6.651,0,0,0,.547-1.987Z" transform="translate(-5.667 -4.02)" fill="#8996ae"></path><path id="Path_33355" data-name="Path 33355" d="M8.07,19.48A6.67,6.67,0,0,0,16.1,17.24l-2.073-1.2Z" transform="translate(-4.023 -6.713)" fill="#8996ae"></path><path id="Path_33356" data-name="Path 33356" d="M18.947,7.89A6.664,6.664,0,0,0,13,2.05v2.4Z" transform="translate(-5.667 -2.05)" fill="#8996ae"></path></g></g></g></g></svg>