<svg xmlns="http://www.w3.org/2000/svg" width="16" height="16" viewBox="0 0 16 16"><g id="Group_12523" data-name="Group 12523" transform="translate(-84 -669)"><rect id="Rectangle_3857" data-name="Rectangle 3857" width="16" height="16" transform="translate(84 669)" fill="#e4e7ed" opacity="0"></rect><g id="shopping_basket-24px" transform="translate(84 669)"><path id="Path_33369" data-name="Path 33369" d="M0,0H16V16H0Z" fill="none"></path><path id="Path_33370" data-name="Path 33370" d="M15,6.662H11.807L8.88,2.282a.666.666,0,0,0-1.107,0L4.847,6.662H1.667A.669.669,0,0,0,1,7.329a.562.562,0,0,0,.027.18l1.693,6.18A1.326,1.326,0,0,0,4,14.663h8.667a1.34,1.34,0,0,0,1.287-.973l1.693-6.18.02-.18A.669.669,0,0,0,15,6.662ZM8.327,3.856,10.2,6.662H6.453ZM8.333,12a1.333,1.333,0,1,1,1.333-1.333A1.337,1.337,0,0,1,8.333,12Z" transform="translate(-0.333 -0.662)" fill="#8996ae"></path></g></g></svg>