<svg xmlns="http://www.w3.org/2000/svg" width="16" height="16" viewBox="0 0 16 16"><g id="Group_12530" data-name="Group 12530" transform="translate(-84 -317)"><rect id="Rectangle_3857" data-name="Rectangle 3857" width="16" height="16" transform="translate(84 317)" fill="#e4e7ed" opacity="0"></rect><g id="power-24px" transform="translate(84 317)"><path id="Path_33378" data-name="Path 33378" d="M0,0H16V16H0Z" fill="none"></path><path id="Path_33379" data-name="Path 33379" d="M12.673,5.667l-.007-2a.667.667,0,1,0-1.333,0v2H8.667v-2a.667.667,0,1,0-1.333,0v2H7.327A1.334,1.334,0,0,0,6,6.993V10.1a1.332,1.332,0,0,0,.387.94L8.333,13v1.333A.669.669,0,0,0,9,15h2a.669.669,0,0,0,.667-.667V13l1.947-1.947A1.359,1.359,0,0,0,14,10.107V6.993A1.326,1.326,0,0,0,12.673,5.667Z" transform="translate(-2 -1)" fill="#8996ae"></path></g></g></svg>