<svg xmlns="http://www.w3.org/2000/svg" width="16" height="16" viewBox="0 0 16 16">
  <g id="Group_13001" data-name="Group 13001" transform="translate(-30 -169)">
    <rect id="Rectangle_2896" data-name="Rectangle 2896" width="16" height="16" transform="translate(30 169)" fill="#fff" opacity="0"/>
    <g id="Group_3852" data-name="Group 3852">
      <path id="Stroke_180" data-name="Stroke 180" d="M3,4H1A1,1,0,0,1,0,3V1A1,1,0,0,1,1,0H3A1,1,0,0,1,4,1V3A1,1,0,0,1,3,4Z" transform="translate(32 171)" fill="none" stroke="#a4aec1" stroke-linecap="round" stroke-linejoin="round" stroke-miterlimit="10" stroke-width="2"/>
      <path id="Stroke_182" data-name="Stroke 182" d="M3,4H1A1,1,0,0,1,0,3V1A1,1,0,0,1,1,0H3A1,1,0,0,1,4,1V3A1,1,0,0,1,3,4Z" transform="translate(32 179)" fill="none" stroke="#a4aec1" stroke-linecap="round" stroke-linejoin="round" stroke-miterlimit="10" stroke-width="2"/>
      <path id="Stroke_182-2" data-name="Stroke 182" d="M3,4H1A1,1,0,0,1,0,3V1A1,1,0,0,1,1,0H3A1,1,0,0,1,4,1V3A1,1,0,0,1,3,4Z" transform="translate(40 179)" fill="none" stroke="#a4aec1" stroke-linecap="round" stroke-linejoin="round" stroke-miterlimit="10" stroke-width="2"/>
      <path id="Stroke_182-3" data-name="Stroke 182" d="M3,4H1A1,1,0,0,1,0,3V1A1,1,0,0,1,1,0H3A1,1,0,0,1,4,1V3A1,1,0,0,1,3,4Z" transform="translate(40 171)" fill="none" stroke="#a4aec1" stroke-linecap="round" stroke-linejoin="round" stroke-miterlimit="10" stroke-width="2"/>
    </g>
  </g>
</svg>