<svg xmlns="http://www.w3.org/2000/svg" id="Sale_2" width="14" height="14" viewBox="0 0 14 14">
    <defs>
        <style>
            .cls-1{fill:none}.cls-3{fill:#fff}
        </style>
    </defs>
    <path id="Stockholm-icons_Shopping_Sale_2_background" d="M0 0H14V14H0z" class="cls-1"/>
    <path id="bound" d="M0 0H14V14H0z" class="cls-1"/>
    <path id="Combined_Shape" fill="#ff3b30" d="M5.968 10.47l-2.018.977L3.032 9.4.858 8.852l.612-2.157L.157 4.876l1.855-1.26.163-2.236 2.231.228L5.968 0l1.563 1.608 2.231-.228.163 2.236 1.855 1.26-1.313 1.818.612 2.157L8.9 9.4l-.918 2.046z" transform="translate(.9 .989)"/>
    <path id="Stroke_1" d="M3.278 0L0 3.491l.771.771L4.05.771z" class="cls-3" transform="translate(4.785 4.923)"/>
    <path id="Fill_2" d="M1.967.984A.984.984 0 1 1 .984 0a.983.983 0 0 1 .984.984" class="cls-3" transform="translate(4.245 4.268)"/>
    <path id="Fill_4" d="M.984 1.967a.984.984 0 1 1 .983-.983.984.984 0 0 1-.983.983z" class="cls-3" transform="translate(7.523 7.546)"/>
</svg>