<svg xmlns="http://www.w3.org/2000/svg" xmlns:xlink="http://www.w3.org/1999/xlink" width="14" height="14" viewBox="0 0 14 14"><defs><clipPath id="a"><path d="M170.892-32a6.892,6.892,0,0,1,6.892,6.892,6.859,6.859,0,0,1-1.171,3.844l1.011,1.058a1.3,1.3,0,0,1,0,1.827,1.275,1.275,0,0,1-1.716.089l-.1-.089L174.8-19.432a6.861,6.861,0,0,1-3.91,1.215A6.892,6.892,0,0,1,164-25.108,6.892,6.892,0,0,1,170.892-32Zm0,2.584a4.308,4.308,0,0,0-4.308,4.307,4.308,4.308,0,0,0,4.308,4.307,4.308,4.308,0,0,0,4.308-4.307A4.308,4.308,0,0,0,170.892-29.416Z" fill="#ffd102"/></clipPath><clipPath id="b"><path d="M-435,1351H1485V-61H-435Z" fill="#ffd102"/></clipPath></defs><g transform="translate(-164 32)" clip-path="url(#a)"><g clip-path="url(#b)"><path d="M159-37h24v24H159Z" fill="#ffd102"/></g></g></svg>