<svg xmlns="http://www.w3.org/2000/svg" xmlns:xlink="http://www.w3.org/1999/xlink" width="30" height="30" viewBox="0 0 30 30"><defs><linearGradient id="a" x1="0.5" x2="0.5" y2="1" gradientUnits="objectBoundingBox"><stop offset="0" stop-color="#1d0024"/><stop offset="1" stop-color="#100014"/></linearGradient><linearGradient id="b" x1="0.5" x2="0.5" y2="1" gradientUnits="objectBoundingBox"><stop offset="0" stop-color="#ffd4b3"/><stop offset="1" stop-color="#ffdcc2"/></linearGradient><clipPath id="c"><circle cx="15" cy="15" r="15" fill="url(#a)"/></clipPath><clipPath id="e"><path d="M3.276,13.973v.043q-.018,1.368-2.3,2.057c1.833,1.333,3.667,2.4,5.5,2.4s3.667-1.067,5.5-2.4q-2.267-.69-2.3-2.06c0-.163,0-.394,0-.828q0-.1,0-.212c.109.015.1.006,0-.022,0-1.142.008-2.677.015-4.238,1.433-1.858.907-4.036.458-3.981C9.6,4.8,4.83.272,3.915.04a3.408,3.408,0,0,0-3.639,2.6c-.4,2.088-.567,7.349.95,9.45a1.974,1.974,0,0,0,2.04.7c0,.437,0,.682.01,1.177Z" transform="translate(11.976 18.473) rotate(180)" fill="url(#b)"/></clipPath></defs><circle cx="15" cy="15" r="15" fill="#200f2b"/><g clip-path="url(#c)"><g transform="translate(6.919 3.339)"><g transform="translate(0 0)"><g transform="translate(14.051 20.04) rotate(180)"><g transform="translate(0)"><g transform="translate(0.469)"><path d="M3.276,13.973v.043q-.018,1.368-2.3,2.057c1.833,1.333,3.667,2.4,5.5,2.4s3.667-1.067,5.5-2.4q-2.267-.69-2.3-2.06c0-.163,0-.394,0-.828q0-.1,0-.212c.109.015.1.006,0-.022,0-1.142.008-2.677.015-4.238,1.433-1.858.907-4.036.458-3.981C9.6,4.8,4.83.272,3.915.04a3.408,3.408,0,0,0-3.639,2.6c-.4,2.088-.567,7.349.95,9.45a1.974,1.974,0,0,0,2.04.7c0,.437,0,.682.01,1.177Z" transform="translate(11.976 18.473) rotate(180)" fill="url(#b)"/><g transform="translate(0)" clip-path="url(#e)"><path d="M0,1.2A8.674,8.674,0,0,0,3.6,0,6.822,6.822,0,0,1,0,2.4Z" transform="translate(8.7 6.878) rotate(180)" fill="#ffbe94"/></g></g><path d="M12.031,10.311c.689-1.657,3.45-5.032,1.07-7.132C12.3-.72,7.881-.289,4.931.611c-1.983.6-3.48,1.8-3.8.9-2,1.668-1,3.3.32,3.768a14.534,14.534,0,0,0,6.661.45c.615-.071.486,1.811.814,2.014.493.305.875-1.614,2.226-1.038s.549,3.249-.9,3.249c-.5,0-.75,1.375.6,2.025C11.831,12.461,11.584,11.388,12.031,10.311Z" transform="translate(14.051 20.04) rotate(180)" fill="#fb6925"/></g></g></g></g><g transform="translate(3 20.3)"><path d="M22.5,3.731c.952,1.936,1.5,6.4,1.5,6.4H0s.548-4.465,1.5-6.4S8.01,0,8.01,0c1.071,2.2,6.951,2.2,7.977,0C15.987,0,21.548,1.8,22.5,3.731Z" fill="#cbd6fc"/></g></g></svg>